<svg width="56" height="32" viewBox="0 0 56 32" fill="none" xmlns="http://www.w3.org/2000/svg">
<path d="M40.4781 32H37.9826C37.7244 31.8819 37.442 31.9026 37.1688 31.8632C34.0579 31.4153 31.2668 30.2234 28.9079 28.1319C24.6297 24.3351 22.7927 19.5506 23.4829 13.876C23.9712 9.85985 25.8213 6.49404 28.9079 3.88347C33.102 0.339625 37.9246 -0.762322 43.2504 0.510165C46.5073 1.2954 49.2123 3.04389 51.401 5.58699C53.2834 7.76298 54.5353 10.4138 55.0207 13.2519C55.1105 13.7485 55.1105 14.2583 55.2564 14.7512V17.2511C55.1764 17.5383 55.1306 17.834 55.1199 18.132C54.659 21.5047 53.14 24.6433 50.7822 27.0946C48.4244 29.546 45.3499 31.1831 42.0027 31.7695C41.4976 31.8594 40.9775 31.8557 40.4781 32ZM36.0969 25.5251C36.0969 25.8999 36.1082 26.2747 36.0969 26.6496C36.0886 27.1627 36.2353 27.6664 36.5178 28.0945C37.2979 29.277 38.4334 29.723 39.7953 29.5431C41.4134 29.3295 42.5564 27.9858 42.4722 26.464C42.4554 26.1529 42.4722 25.84 42.4722 25.527C44.1839 24.8879 45.6131 23.8797 46.5877 22.3036C47.0124 21.6158 47.336 20.8812 47.3135 20.0547C47.2967 19.3314 46.8515 19.0109 46.1724 19.2208C44.2344 19.8186 42.2346 20.0379 40.2218 20.1316C39.0359 20.1876 37.8474 20.1493 36.6675 20.0173C35.2233 19.8561 33.7848 19.6743 32.3911 19.2302C31.6784 19.0034 31.2406 19.3295 31.2201 20.0866C31.2193 20.5991 31.3358 21.1049 31.5605 21.5652C32.4959 23.5574 34.1009 24.7661 36.0969 25.5251ZM45.686 7.24928C44.7851 7.25077 43.9048 7.51977 43.1564 8.0223C42.408 8.52483 41.8251 9.23834 41.4813 10.0726C41.1375 10.907 41.0484 11.8246 41.225 12.7097C41.4017 13.5948 41.8363 14.4075 42.4739 15.0452C43.1115 15.6829 43.9235 16.117 44.8073 16.2925C45.691 16.4681 46.6069 16.3772 47.4391 16.0315C48.2714 15.6857 48.9826 15.1006 49.483 14.35C49.9834 13.5994 50.2505 12.7171 50.2505 11.8145C50.251 11.2142 50.1332 10.6197 49.9039 10.0651C49.6746 9.51056 49.3383 9.00676 48.9143 8.58265C48.4902 8.15853 47.9868 7.82244 47.4328 7.59363C46.8788 7.36482 46.2852 7.2478 45.686 7.24928ZM36.5422 13.6473C36.534 13.5768 36.5221 13.5067 36.5066 13.4374C36.2192 12.1338 35.4753 10.9763 34.4096 10.1747C33.4443 9.44006 32.4379 9.45131 31.4389 10.1466C31.073 10.4046 30.7481 10.7168 30.4755 11.0724C29.8975 11.822 29.428 12.6222 29.2858 13.578C29.269 13.7017 29.2297 13.846 29.3494 13.9247C29.4691 14.0034 29.6038 13.891 29.7048 13.8104C29.8058 13.7298 29.9181 13.6117 30.0266 13.5143C30.3764 13.205 30.7131 12.8808 31.0798 12.5904C32.3107 11.6196 33.4368 11.614 34.6883 12.5547C34.838 12.6672 34.9839 12.7853 35.1242 12.9089C35.4815 13.2257 35.8332 13.5499 36.1905 13.8666C36.2578 13.9266 36.342 14.0034 36.4393 13.9584C36.5365 13.9134 36.5384 13.7879 36.5422 13.6473Z" fill="#FED83B"/>
<path d="M45.6859 6.84074C46.6691 6.8445 47.629 7.14062 48.444 7.69158C49.259 8.24254 49.8924 9.02352 50.2638 9.93551C50.6353 10.8475 50.728 11.8494 50.5304 12.8143C50.3327 13.7792 49.8536 14.6635 49.1536 15.3553C48.4537 16.047 47.5645 16.515 46.5987 16.6998C45.633 16.8847 44.6342 16.7781 43.729 16.3937C42.8238 16.0092 42.0529 15.3641 41.5141 14.5402C40.9752 13.7163 40.6928 12.7507 40.7024 11.7658C40.7172 10.4525 41.2491 9.19818 42.1824 8.27582C43.1157 7.35346 44.3749 6.83769 45.6859 6.84074ZM45.669 13.7954C46.06 13.795 46.4422 13.6787 46.7674 13.4611C47.0925 13.2436 47.3462 12.9345 47.4963 12.5728C47.6464 12.2111 47.6864 11.813 47.6111 11.4286C47.5358 11.0442 47.3486 10.6907 47.0732 10.4127C46.7977 10.1347 46.4463 9.9445 46.0632 9.86618C45.6801 9.78786 45.2824 9.82489 44.9202 9.97257C44.558 10.1203 44.2476 10.372 44.028 10.6961C43.8084 11.0202 43.6894 11.4022 43.6861 11.7939C43.6851 12.0557 43.7356 12.3152 43.8347 12.5575C43.9339 12.7998 44.0797 13.0202 44.2638 13.206C44.4479 13.3919 44.6668 13.5396 44.9079 13.6407C45.149 13.7418 45.4076 13.7944 45.669 13.7954Z" fill="#F3C535"/>
<path d="M45.6858 7.2493C46.5881 7.25306 47.4691 7.52512 48.217 8.03102C48.9648 8.53692 49.5459 9.25387 49.8866 10.091C50.2273 10.9281 50.3122 11.8477 50.1306 12.7332C49.949 13.6188 49.509 14.4303 48.8665 15.0651C48.224 15.6998 47.4078 16.1292 46.5214 16.2987C45.635 16.4682 44.7183 16.3703 43.8876 16.0173C43.0568 15.6643 42.3494 15.0722 41.8549 14.316C41.3604 13.5598 41.1012 12.6735 41.1101 11.7695C41.1234 10.5638 41.6118 9.41216 42.4688 8.56551C43.3259 7.71885 44.4821 7.24577 45.6858 7.2493ZM45.6689 13.6323C46.0282 13.6327 46.3794 13.5265 46.6785 13.327C46.9775 13.1276 47.2108 12.8439 47.3491 12.5117C47.4873 12.1796 47.5242 11.8138 47.4552 11.4607C47.3861 11.1075 47.2142 10.7827 46.9611 10.5273C46.708 10.272 46.3851 10.0974 46.0331 10.0257C45.681 9.954 45.3157 9.98836 44.9832 10.1245C44.6506 10.2606 44.3657 10.4923 44.1645 10.7904C43.9633 11.0885 43.8547 11.4397 43.8525 11.7995C43.8525 12.2834 44.0435 12.7476 44.3837 13.0909C44.724 13.4343 45.186 13.6289 45.6689 13.6323Z" fill="#FEFEFD"/>
<path d="M42.4889 25.527C42.4889 25.8381 42.4646 26.1511 42.4889 26.464C42.5731 27.9858 41.4301 29.3295 39.812 29.5431C38.4501 29.7305 37.3146 29.277 36.5345 28.0944C36.252 27.6663 36.1053 27.1627 36.1136 26.6496C36.1136 26.2747 36.1136 25.8999 36.1136 25.5251C36.1136 25.3902 36.1248 25.2552 36.1267 25.1203C36.1267 23.8722 36.1267 22.6241 36.1267 21.3722C36.1267 21.1848 36.1267 21.0292 36.383 21.0648C37.0302 21.1548 37.6925 21.1585 38.3341 21.2073C39.5931 21.3066 40.8389 21.1848 42.0886 21.093C42.4908 21.063 42.4945 21.0349 42.4945 21.4378C42.487 22.8009 42.4851 24.1639 42.4889 25.527Z" fill="#FB4C59"/>
<path d="M42.4889 25.527C42.4889 24.1652 42.4845 22.8034 42.4758 21.4416C42.4758 21.0386 42.4758 21.0668 42.0699 21.0967C40.8202 21.1886 39.5744 21.3104 38.3154 21.2111C37.6663 21.1623 37.0059 21.1586 36.3643 21.0686C36.1117 21.033 36.108 21.1923 36.108 21.376C36.108 22.6241 36.108 23.8722 36.108 25.1241C36.108 25.259 36.108 25.3939 36.0949 25.5289C34.0989 24.7793 32.4938 23.5611 31.5866 21.5634C31.3618 21.103 31.2454 20.5972 31.2461 20.0847C31.2667 19.3351 31.7044 19.0015 32.4171 19.2283C33.8108 19.6724 35.2494 19.8542 36.6935 20.0154C37.8734 20.1475 39.0619 20.1857 40.2478 20.1297C42.2607 20.036 44.2604 19.8167 46.1985 19.2189C46.8775 19.009 47.3209 19.3295 47.3396 20.0529C47.3601 20.885 47.0384 21.6196 46.6137 22.3018C45.6298 23.8797 44.2006 24.888 42.4889 25.527Z" fill="#404447"/>
<path d="M36.5417 13.6473C36.5417 13.7879 36.5417 13.9078 36.4388 13.9584C36.336 14.009 36.2518 13.9266 36.1901 13.8666C35.8328 13.5499 35.4811 13.2257 35.1238 12.909C34.9835 12.7853 34.8375 12.6672 34.6879 12.5548C33.4364 11.6177 32.3103 11.6177 31.0793 12.5904C30.7052 12.8808 30.376 13.2051 30.0261 13.5143C29.9176 13.6117 29.8185 13.7204 29.7044 13.8104C29.5903 13.9003 29.493 14.0184 29.349 13.9247C29.2049 13.831 29.2685 13.7017 29.2854 13.578C29.4275 12.6222 29.8971 11.8201 30.4751 11.0724C30.7477 10.7168 31.0725 10.4046 31.4385 10.1466C32.4375 9.45132 33.4439 9.44007 34.4092 10.1747C35.4749 10.9763 36.2188 12.1338 36.5062 13.4374C36.5217 13.5067 36.5336 13.5768 36.5417 13.6473Z" fill="#404447"/>
<path d="M45.6687 13.6323C45.3096 13.6286 44.9596 13.5185 44.6629 13.3158C44.3662 13.113 44.1361 12.8268 44.0015 12.4932C43.867 12.1596 43.8341 11.7936 43.907 11.4413C43.9798 11.089 44.1552 10.7662 44.411 10.5136C44.6667 10.261 44.9914 10.09 45.3441 10.022C45.6968 9.9541 46.0617 9.99233 46.3927 10.1319C46.7237 10.2714 47.0061 10.5061 47.2042 10.8062C47.4023 11.1063 47.5072 11.4585 47.5057 11.8183C47.5013 12.3026 47.3055 12.7654 46.9612 13.1054C46.6169 13.4454 46.1522 13.6348 45.6687 13.6323Z" fill="#404447"/>
<path d="M2.62065 10.066C3.82671 7.91129 5.60298 6.13182 7.75381 4.92358C9.9213 3.69669 12.3532 3.08263 15.0495 3.08138C18.2034 3.08138 20.9658 3.89347 23.3366 5.51766C25.7073 7.14184 27.3642 9.38259 28.307 12.2399H21.7989C21.2232 10.9698 20.27 9.90886 19.0696 9.20206C17.8294 8.50982 16.4277 8.16054 15.0083 8.19006C13.4683 8.16202 11.9507 8.56158 10.6234 9.34449C9.33421 10.1205 8.29517 11.2519 7.63034 12.6035C6.91574 14.0078 6.55844 15.6544 6.55844 17.5435C6.55844 19.4063 6.91574 21.0461 7.63034 22.4629C8.29073 23.8234 9.33031 24.9631 10.6234 25.7444C11.9512 26.5258 13.4686 26.9247 15.0083 26.8969C16.4304 26.9274 17.8341 26.5705 19.0696 25.8643C20.27 25.1457 21.2223 24.0765 21.7989 22.8002H28.3051C27.3623 25.69 25.7123 27.9389 23.3553 29.5469C20.9982 31.1548 18.229 31.9575 15.0476 31.955C12.3538 31.955 9.92192 31.341 7.75194 30.1128C5.60501 28.9087 3.82939 27.137 2.61877 24.991C1.36542 22.8046 0.741858 20.3209 0.748093 17.5397C0.754329 14.7586 1.37851 12.2674 2.62065 10.066Z" fill="white"/>
<path d="M1.8726 10.066C3.07866 7.91129 4.85493 6.13182 7.00576 4.92358C9.17326 3.69669 11.6051 3.08263 14.3014 3.08138C17.4554 3.08138 20.2177 3.89347 22.5885 5.51766C24.9593 7.14184 26.6161 9.38259 27.5589 12.2399H21.0508C20.4751 10.9698 19.5219 9.90886 18.3215 9.20206C17.0813 8.50982 15.6796 8.16054 14.2602 8.19006C12.7203 8.16202 11.2026 8.56158 9.87538 9.34449C8.58616 10.1205 7.54712 11.2519 6.88229 12.6035C6.16769 14.0078 5.81039 15.6544 5.81039 17.5435C5.81039 19.4063 6.16769 21.0461 6.88229 22.4629C7.54269 23.8234 8.58226 24.9631 9.87538 25.7444C11.2031 26.5258 12.7206 26.9247 14.2602 26.8969C15.6823 26.9274 17.086 26.5705 18.3215 25.8643C19.5219 25.1457 20.4743 24.0765 21.0508 22.8002H27.5571C26.6142 25.69 24.9643 27.9389 22.6072 29.5469C20.2502 31.1548 17.4809 31.9575 14.2995 31.955C11.6058 31.955 9.17388 31.341 7.00389 30.1128C4.85697 28.9087 3.08134 27.137 1.87073 24.991C0.617371 22.8046 -0.0061893 20.3209 4.6304e-05 17.5397C0.00628191 14.7586 0.630468 12.2674 1.8726 10.066Z" fill="#404447"/>
</svg>
