<svg width="32" height="32" viewBox="0 0 32 32" fill="none" xmlns="http://www.w3.org/2000/svg">
<path d="M14.8154 0H17.2527C17.3042 0.0974936 17.3999 0.0533467 17.4753 0.0643837C17.9793 0.137964 18.4888 0.180269 18.9892 0.279602C22.6976 1.0154 25.8064 2.79604 28.2253 5.6951C31.3525 9.44768 32.5371 13.7889 31.7848 18.6047C31.2602 22.1215 29.526 25.3454 26.8806 27.7213C23.1869 31.1041 18.8108 32.4764 13.8459 31.8547C10.6798 31.4661 7.71395 30.0989 5.36215 27.9439C2.55325 25.4713 0.714141 22.0812 0.172925 18.3785C0.11774 18.0253 0.143481 17.6574 0 17.3208V14.6903C0.0754196 14.6608 0.0570201 14.5909 0.0643781 14.5321C0.120789 13.9839 0.20051 13.4382 0.303522 12.8949C1.55806 6.33709 7.01953 1.1221 13.627 0.174755C14.0225 0.11773 14.4291 0.130605 14.8154 0ZM9.60219 7.67625C9.48088 7.67477 9.36066 7.69929 9.24961 7.74815C9.13855 7.79701 9.03924 7.86909 8.95837 7.95952L8.07542 8.84249C7.52357 9.39434 7.52357 9.8119 8.07542 10.3638C9.872 12.1628 11.671 13.9588 13.4725 15.7517C13.6712 15.9485 13.6822 16.0497 13.4725 16.252C11.644 18.0633 9.82295 19.8813 8.0092 21.7061C7.54565 22.1715 7.54749 22.6259 8.0092 23.095C8.28697 23.3764 8.56104 23.656 8.84984 23.9356C9.40169 24.4875 9.81743 24.4875 10.373 23.9356C12.1769 22.1304 13.9796 20.324 15.7811 18.5164C15.965 18.3325 16.0607 18.3435 16.2373 18.5164C18.0437 20.3351 19.8544 22.1482 21.6693 23.9558C22.1807 24.4672 22.6204 24.4709 23.1262 23.9687C23.3929 23.7057 23.656 23.4389 23.9227 23.1741C24.4911 22.6038 24.493 22.1936 23.9227 21.627C22.1262 19.8304 20.3271 18.0351 18.5256 16.241C18.3417 16.057 18.3251 15.9577 18.5256 15.7609C20.3541 13.9508 22.1746 12.1334 23.9871 10.3086C24.4654 9.82846 24.4635 9.37778 23.9871 8.89583L23.1465 8.05518C22.6075 7.51989 22.1881 7.52173 21.6454 8.05518L16.3109 13.3897C15.9945 13.7061 15.9945 13.7061 15.6873 13.4008C13.8968 11.6103 12.1076 9.81988 10.3196 8.02943C10.1228 7.8234 9.91123 7.65969 9.60219 7.67625Z" fill="#FE4141"/>
</svg>
