<svg width="36" height="32" viewBox="0 0 36 32" fill="none" xmlns="http://www.w3.org/2000/svg">
<path d="M7.77838 24.2651C5.31275 21.8228 2.89968 19.3191 1.38156 16.1155C-0.33177 12.4989 -0.534486 8.79326 1.23891 5.12601C2.52878 2.45654 4.60249 0.726532 7.5111 0.178517C11.606 -0.589012 15.2128 1.30218 17.0267 5.1521C17.2325 5.58959 17.4097 6.0409 17.6274 6.54747C17.8883 5.84104 18.2005 5.15552 18.5614 4.49663C19.8182 2.31992 21.5646 0.79254 24.0182 0.241454C25.6614 -0.156433 27.382 -0.0610217 28.9735 0.516231C29.1041 0.906136 29.454 1.11951 29.6837 1.43727C30.9811 3.19644 32.0157 5.07382 32.2665 7.3411C32.4354 8.76239 32.2058 10.2035 31.6043 11.4965C30.8535 13.1175 29.7048 14.4361 28.5365 15.7363C27.7977 16.5576 26.9673 17.2806 26.1595 18.0297C25.0979 19.0075 23.9747 19.9286 22.8364 20.8066C20.8885 22.3352 18.8411 23.7266 16.7084 24.9712C15.878 25.4502 15.0356 25.8032 14.0325 25.7526C12.3789 25.6639 10.7445 25.3479 9.17337 24.8131C8.7334 24.6596 8.34148 24.3802 7.86397 24.3526L7.77838 24.2651ZM2.266 7.731C2.20744 8.89611 3.00178 9.53316 4.10246 9.11255C6.42994 8.21148 7.83694 6.44462 8.23937 3.92099C8.34298 3.27319 8.01263 2.45501 7.01106 2.47803C6.51936 2.49539 6.03913 2.63445 5.61157 2.88329C4.72539 3.3905 3.96223 4.09511 3.37869 4.94487C2.78255 5.76613 2.32156 6.67028 2.266 7.731Z" fill="#FB4F4F"/>
<path d="M7.86426 24.3467C8.34177 24.3805 8.73368 24.666 9.17365 24.8072C10.7448 25.342 12.3792 25.658 14.0328 25.7467C15.0359 25.7973 15.8783 25.4397 16.7087 24.9653C18.8413 23.7207 20.8887 22.3293 22.8367 20.8007C23.9749 19.915 25.0981 19.0078 26.1598 18.0207C26.9676 17.2716 27.798 16.5486 28.5368 15.7274C29.705 14.4272 30.8583 13.1086 31.6046 11.4875C32.2044 10.1973 32.434 8.75961 32.2668 7.34134C32.016 5.07713 30.9814 3.19668 29.678 1.43443C29.4483 1.12742 29.0984 0.909445 28.9678 0.5134C30.5489 1.00308 31.8208 1.96557 32.8449 3.26269C34.7489 5.67887 35.4126 8.48188 35.1529 11.532C34.8736 14.8033 33.399 17.528 31.3868 19.9749C27.7169 24.4511 23.4599 28.2642 18.7584 31.5676C17.9535 32.1341 17.3168 32.1494 16.506 31.5814C14.2219 29.9774 12.0388 28.228 9.9695 26.3438C9.23432 25.7159 8.53162 25.0493 7.86426 24.3467Z" fill="#D54343"/>
<path d="M2.26623 7.73125C2.32179 6.67052 2.78278 5.76637 3.37891 4.94051C3.96246 4.09074 4.72562 3.38614 5.6118 2.87893C6.03936 2.63009 6.51959 2.49103 7.01129 2.47367C8.01286 2.45065 8.34321 3.26883 8.2396 3.91663C7.83717 6.44026 6.43017 8.20711 4.10269 9.10819C3.00051 9.5334 2.20766 8.89636 2.26623 7.73125Z" fill="#FC8282"/>
</svg>
