<svg width="34" height="32" viewBox="0 0 34 32" fill="none" xmlns="http://www.w3.org/2000/svg">
<path d="M27.3941 31.9062C27.1541 31.9743 26.905 32.0043 26.6558 31.9952C23.6611 31.9952 20.6664 32.006 17.6732 31.9952C15.7706 31.9845 13.9064 31.7634 12.1652 30.9023C11.4638 30.5538 10.6779 30.4556 9.9165 30.2882C9.9165 24.9176 9.9165 19.5449 9.9165 14.1702C11.0747 14.1502 12.2329 14.1441 13.3726 13.8632C15.343 13.3934 16.6319 12.1746 17.3394 10.3111C17.8901 8.86042 18.067 7.33918 18.2162 5.8072C18.3423 4.52389 18.3007 3.22831 18.513 1.95421C18.6207 1.31256 18.8206 0.697 19.4174 0.319377C19.7404 0.431436 20.0973 0.463675 20.3618 0.710819C21.0582 1.33914 21.6234 2.09857 22.0249 2.9455C22.4263 3.79243 22.6562 4.71017 22.7013 5.64602C22.7966 7.21945 22.4137 8.72534 22.066 10.2389C21.9219 10.7976 21.8313 11.3686 21.7953 11.9443C21.783 12.2805 21.9122 12.3788 22.2306 12.3634C22.692 12.3419 23.1535 12.3557 23.6257 12.3527L28.8968 12.368C29.3202 12.8112 29.6323 13.3484 29.8074 13.9353C30.2815 15.4821 30.5367 17.0874 30.5656 18.7047C30.6318 20.7494 30.6656 22.8018 30.4118 24.8449C30.2134 26.4061 29.9504 27.9442 29.3982 29.4194C29.0075 30.474 28.4615 31.4088 27.3941 31.9062Z" fill="#F8C695"/>
<path d="M2.33357 12.9667C3.40213 12.8721 4.47651 12.8618 5.54669 12.936C6.33881 12.9928 6.71411 13.3858 6.85715 14.1641V30.2023C6.70334 31.065 6.22499 31.458 5.2529 31.4672C4.28082 31.4764 3.30566 31.5194 2.33049 31.4043C1.49068 30.7396 1.62911 29.8032 1.62911 28.9036C1.62911 24.4008 1.62911 19.9031 1.62911 15.4105C1.63065 14.5294 1.51991 13.6237 2.33357 12.9667Z" fill="#43A1FE"/>
<path d="M6.85693 30.2023V14.164L9.91932 14.1732C9.91932 19.5459 9.91932 24.9186 9.91932 30.2913C8.89955 30.1547 7.8767 30.233 6.85693 30.2023Z" fill="#E3B07D"/>
<path d="M27.394 31.9062C28.4707 31.4088 29.0075 30.474 29.3936 29.4332C29.9458 27.958 30.2088 26.4199 30.4072 24.8588C30.6656 22.8125 30.6318 20.7602 30.561 18.7185C30.5321 17.1012 30.2768 15.4959 29.8027 13.9491C29.6277 13.3622 29.3156 12.825 28.8922 12.3818C29.4397 12.3818 29.9842 12.3388 30.5287 12.4617C31.7592 12.7349 32.3298 13.2814 32.5406 14.4296C32.62 14.9461 32.5539 15.4746 32.3496 15.9557C32.1453 16.4369 31.811 16.8519 31.3839 17.1543C31.3162 17.1988 31.2455 17.2387 31.0763 17.337C31.9022 17.4122 32.6144 17.5181 33.0974 18.192C33.5588 18.8413 33.6419 19.5613 33.5988 20.3227C33.5296 21.5676 32.8589 22.3182 31.5839 22.5792C32.699 23.1641 33.2266 24.1941 33.0774 25.4958C32.942 26.6732 32.3483 27.3808 31.2316 27.6848C31.1963 27.8536 31.3547 27.9028 31.4362 27.9918C31.809 28.368 32.0181 28.8757 32.0181 29.4048C32.0181 29.9339 31.809 30.4417 31.4362 30.8178C30.7579 31.5378 29.8812 31.811 28.9337 31.8924C28.4277 31.9338 27.9093 31.9031 27.394 31.9062Z" fill="#E5B17D"/>
<path d="M2.33347 12.9667C1.51981 13.6191 1.63056 14.5294 1.63209 15.4228C1.63209 19.9256 1.63209 24.4233 1.63209 28.9159C1.63209 29.8155 1.49366 30.758 2.33347 31.4165C1.95202 31.4165 1.56442 31.4411 1.18758 31.4165C0.886369 31.3957 0.602927 31.2666 0.389711 31.0533C0.176495 30.8399 0.0479451 30.5567 0.0278461 30.256C0.012465 30.058 0.0170782 29.8584 0.0170782 29.6604C0.0170782 24.7007 0.0401521 19.7409 0.000161251 14.7827C-0.0106055 13.4702 0.516965 12.8408 1.83513 12.959C2.00586 12.9652 2.16736 12.9621 2.33347 12.9667Z" fill="#2A93FB"/>
<path d="M23.6287 12.3634C23.1673 12.3634 22.6981 12.3527 22.2336 12.3742C21.9152 12.3895 21.786 12.2913 21.7983 11.9551C21.8341 11.3783 21.9248 10.8062 22.069 10.2466C22.4167 8.73302 22.7996 7.22713 22.7043 5.65369C22.6578 4.71969 22.4273 3.80399 22.0258 2.959C21.6244 2.11401 21.06 1.35631 20.3648 0.729242C20.1003 0.482098 19.7496 0.449864 19.4204 0.337805C20.1602 -0.268542 21.3892 -0.0152606 22.2536 0.752267C23.6856 2.02329 24.4331 3.65813 24.5962 5.55239C24.7346 7.15038 24.3008 8.67776 23.964 10.2143C23.8059 10.9227 23.6939 11.6406 23.6287 12.3634Z" fill="#E5B17D"/>
</svg>
