<svg width="39" height="32" viewBox="0 0 39 32" fill="none" xmlns="http://www.w3.org/2000/svg">
<path d="M19.1264 31.997H0.849427C0.0704087 31.997 0 31.9267 0 31.1478C0 27.3724 0 23.598 0 19.8246C0 19.0457 0.0689106 18.9862 0.849427 18.9724C1.54305 18.9602 2.31009 19.1817 2.90933 18.89C3.50858 18.5983 3.90557 17.9736 4.38647 17.4803C8.31751 13.4809 12.2486 9.4815 16.1796 5.4821C16.4298 5.22705 16.5167 5.06821 16.3144 4.69708C15.9736 4.04477 15.8658 3.29192 16.0096 2.5675C16.1533 1.84307 16.5397 1.19214 17.1024 0.726195C17.6715 0.254858 18.3828 -0.00166162 19.116 8.10012e-06C19.8492 0.00167783 20.5594 0.261434 21.1264 0.735359C21.685 1.20668 22.0667 1.86026 22.2071 2.58551C22.3474 3.31076 22.2376 4.06315 21.8964 4.71541C21.7106 5.05599 21.7691 5.2133 22.0163 5.46378C26.3338 9.84194 30.6444 14.2298 34.948 18.6273C35.0492 18.7477 35.1763 18.8427 35.3196 18.9047C35.4628 18.9667 35.6181 18.9941 35.7734 18.9847C36.3727 18.9572 36.9719 18.9847 37.5711 18.974C38.0026 18.974 38.2153 19.1496 38.2138 19.6047C38.2138 23.5237 38.2138 27.4437 38.2138 31.3647C38.2138 31.8962 38.076 32 37.4408 32H19.1264V31.997ZM19.0994 30.9813H36.7517C37.0049 30.9813 37.2371 31.0394 37.2356 30.6148C37.2206 27.1957 37.2206 23.7767 37.2356 20.3577C37.2356 20.0522 37.1307 19.9774 36.8505 19.9835C36.0775 20.0003 35.303 19.9835 34.5285 19.9835C23.5184 19.9835 12.5092 19.9794 1.5011 19.9713C1.06216 19.9713 0.990251 20.1102 0.991749 20.5165C1.00773 23.8235 1.00773 27.1296 0.991749 30.4346C0.991749 30.8927 1.12358 30.9844 1.54604 30.9828C7.39467 30.9737 13.2458 30.9732 19.0994 30.9813ZM4.47036 18.9434H33.7869C33.715 18.8533 33.6805 18.8014 33.6371 18.7571C29.4893 14.5266 25.3446 10.2945 21.2028 6.06094C21.02 5.87461 20.9031 5.89141 20.6934 6.01053C19.6807 6.57868 18.638 6.61075 17.6208 6.03955C17.3212 5.87613 17.1833 5.91279 16.9586 6.14341C12.8928 10.3006 8.82188 14.4517 4.74602 18.5967C4.64115 18.6945 4.50781 18.7678 4.47036 18.9434ZM21.2807 3.21258C21.2807 2.06561 20.2635 1.02401 19.1249 1.00263C18.0208 0.982776 16.9272 2.07172 16.9422 3.18509C16.9586 4.37941 17.9908 5.43323 19.1204 5.42254C20.25 5.41185 21.2807 4.35345 21.2807 3.21869V3.21258Z" fill="#010101"/>
<path d="M19.0995 30.9811C13.2469 30.9811 7.39428 30.9842 1.54166 30.9903C1.11919 30.9903 0.984357 30.9002 0.987353 30.442C1.01032 27.136 1.01032 23.83 0.987353 20.524C0.987353 20.1177 1.05777 19.9787 1.49672 19.9787C12.5068 19.994 23.516 19.9981 34.5241 19.9909C35.2986 19.9909 36.0731 20.0016 36.8462 19.9909C37.1263 19.9909 37.2312 20.0566 37.2312 20.3651C37.2202 23.7852 37.2202 27.2042 37.2312 30.6222C37.2312 31.0468 37.0005 30.9888 36.7473 30.9888L19.0995 30.9811ZM29.2028 23.4242C29.4155 23.5174 29.4769 23.6762 29.5698 23.7984C30.9541 25.6209 32.3358 27.445 33.7151 29.2706C33.9084 29.5272 34.1106 29.7608 34.4642 29.6478C34.8177 29.5348 34.7878 29.2156 34.7878 28.9224C34.7878 27.3585 34.7878 25.794 34.7878 24.2291V21.9077C34.7878 21.5747 34.6679 21.3303 34.3114 21.312C33.9263 21.2922 33.79 21.5487 33.7705 21.897C33.7705 22.01 33.7705 22.123 33.7705 22.236V27.5142C33.5548 27.4272 33.4934 27.2714 33.402 27.1523C32.0267 25.342 30.655 23.5301 29.2867 21.7167C29.0964 21.4647 28.9107 21.2112 28.5496 21.3319C28.1886 21.4525 28.217 21.79 28.217 22.0955C28.217 24.1756 28.217 26.2558 28.217 28.3359C28.217 28.6414 28.2066 28.9468 28.232 29.2523C28.2575 29.5577 28.4567 29.6631 28.7279 29.6585C28.8403 29.6696 28.9524 29.6349 29.0397 29.5619C29.127 29.4889 29.1824 29.3836 29.1938 29.2691C29.2111 29.1093 29.2171 28.9486 29.2118 28.788L29.2028 23.4242ZM7.56706 29.6738C8.38009 29.6704 9.17385 29.4211 9.84774 28.9574C10.5216 28.4937 11.0453 27.8364 11.3525 27.069C11.6596 26.3016 11.7364 25.4584 11.573 24.6465C11.4096 23.8345 11.0135 23.0903 10.4348 22.5081C9.85616 21.9258 9.12097 21.5318 8.32243 21.376C7.52389 21.2202 6.69795 21.3095 5.94926 21.6327C5.20058 21.9559 4.56285 22.4984 4.1169 23.1914C3.67095 23.8845 3.43685 24.6969 3.44426 25.5257C3.45572 26.6318 3.89547 27.6884 4.6677 28.4653C5.43994 29.2423 6.48208 29.6767 7.56706 29.6738ZM20.6111 25.4387C20.6111 26.5994 20.6111 27.7601 20.6111 28.9224C20.6111 29.5577 20.7175 29.6692 21.3197 29.6723C22.6486 29.6723 23.9759 29.6723 25.3047 29.6723C25.6792 29.6723 25.9923 29.602 25.9804 29.1392C25.9669 28.704 25.6553 28.6521 25.3077 28.6551C24.2156 28.6551 23.1235 28.6459 22.0328 28.6551C21.7182 28.6551 21.5834 28.5955 21.5969 28.2351C21.6253 27.6242 21.6253 27.0133 21.5969 26.4024C21.5789 26.045 21.7167 25.9763 22.0328 25.9809C23.1235 25.9977 24.2156 25.9809 25.3062 25.99C25.6553 25.99 25.9669 25.9427 25.9804 25.5074C25.9938 25.0492 25.6807 24.9698 25.3062 24.9729C24.2156 24.9729 23.1235 24.9637 22.0328 24.982C21.7167 24.982 21.5834 24.9179 21.5969 24.5605C21.6253 23.9496 21.6253 23.3387 21.5969 22.7278C21.5789 22.3689 21.7182 22.3017 22.0328 22.3078C23.1235 22.3246 24.2156 22.3078 25.3077 22.3154C25.6553 22.3154 25.9669 22.265 25.9804 21.8298C25.9938 21.3716 25.6807 21.2967 25.3047 21.2983C23.9759 21.2983 22.6486 21.2983 21.3197 21.2983C20.7205 21.2983 20.6126 21.4113 20.6111 22.0482C20.6096 23.1799 20.6111 24.3085 20.6111 25.4372V25.4387ZM13.5116 25.4662C13.5116 26.6269 13.5116 27.7876 13.5116 28.9483C13.5116 29.3179 13.5535 29.657 14.0119 29.6631C14.4704 29.6692 14.5378 29.3378 14.5363 28.9667C14.5363 28.2901 14.5648 27.6105 14.5258 26.9354C14.5018 26.5108 14.6486 26.4207 15.0292 26.4482C15.5011 26.4803 15.9775 26.4635 16.4509 26.4482C17.1147 26.4438 17.7499 26.1718 18.2178 25.6917C18.6856 25.2115 18.9482 24.5622 18.9482 23.8855C18.9544 23.5502 18.8952 23.2171 18.7742 22.9053C18.6532 22.5935 18.4728 22.3093 18.2433 22.0691C18.0138 21.8289 17.7399 21.6375 17.4374 21.506C17.1348 21.3745 16.8097 21.3054 16.4808 21.3029C15.7318 21.283 14.9947 21.2952 14.2516 21.3029C13.6359 21.3029 13.5161 21.4342 13.5146 22.0818C13.5116 23.2089 13.5106 24.3365 13.5116 25.4646V25.4662Z" fill="#F8C600"/>
<path d="M21.2806 3.21851C21.2806 4.35327 20.2319 5.41777 19.1203 5.42846C18.0087 5.43915 16.9585 4.38534 16.942 3.19102C16.9271 2.08223 18.0207 0.988703 19.1248 1.00856C20.2634 1.02994 21.2806 2.07153 21.2806 3.21851Z" fill="#F8C600"/>
<path d="M29.2029 23.4242V28.7941C29.2082 28.9547 29.2022 29.1155 29.185 29.2752C29.1736 29.3897 29.1182 29.495 29.0309 29.568C28.9436 29.641 28.8314 29.6757 28.7191 29.6646C28.4479 29.6646 28.2486 29.547 28.2232 29.2584C28.1977 28.9697 28.2082 28.6475 28.2082 28.342C28.2082 26.2619 28.2082 24.1817 28.2082 22.1016C28.2082 21.7962 28.1662 21.4602 28.5408 21.338C28.9153 21.2158 29.0876 21.4709 29.2778 21.7229C30.6461 23.5372 32.0179 25.3491 33.3932 27.1584C33.4845 27.2775 33.543 27.4333 33.7617 27.5204V22.236C33.7617 22.123 33.7617 22.01 33.7617 21.897C33.7812 21.5487 33.9115 21.2861 34.3025 21.312C34.6591 21.3303 34.7804 21.5747 34.7789 21.9077V24.2291C34.7789 25.795 34.7789 27.3595 34.7789 28.9224C34.7789 29.2156 34.8029 29.5333 34.4553 29.6478C34.1078 29.7624 33.9055 29.5272 33.7063 29.2706C32.328 27.444 30.9462 25.6199 29.561 23.7984C29.4771 23.6762 29.4157 23.5174 29.2029 23.4242Z" fill="#040300"/>
<path d="M7.5671 29.6738C6.7545 29.6726 5.96053 29.4256 5.28569 28.9641C4.61084 28.5027 4.08547 27.8474 3.77608 27.0814C3.46669 26.3154 3.38719 25.473 3.54765 24.6609C3.70811 23.8488 4.10131 23.1035 4.67748 22.5194C5.25365 21.9352 5.98687 21.5384 6.78434 21.3793C7.5818 21.2202 8.40766 21.3058 9.15735 21.6254C9.90704 21.945 10.5469 22.4842 10.9958 23.1747C11.4448 23.8652 11.6827 24.676 11.6794 25.5044C11.6792 26.0538 11.5726 26.5977 11.3656 27.105C11.1585 27.6123 10.8553 28.0728 10.4732 28.4603C10.091 28.8477 9.6376 29.1543 9.13889 29.3626C8.64018 29.5709 8.10602 29.6766 7.5671 29.6738ZM4.46301 25.4891C4.46656 26.1132 4.65133 26.7223 4.994 27.2395C5.33667 27.7567 5.82191 28.1588 6.3885 28.3952C6.9551 28.6316 7.57767 28.6917 8.1777 28.5678C8.77773 28.4439 9.32835 28.1417 9.7601 27.6992C10.1918 27.2567 10.4854 26.6938 10.6037 26.0815C10.722 25.4691 10.6598 24.8347 10.4249 24.2584C10.19 23.682 9.79299 23.1895 9.28385 22.8429C8.77472 22.4963 8.17632 22.3112 7.56411 22.3108C7.15564 22.3114 6.75131 22.3942 6.37426 22.5543C5.99721 22.7145 5.65484 22.9489 5.36678 23.2441C5.07872 23.5393 4.85062 23.8896 4.69554 24.2748C4.54046 24.66 4.46144 25.0727 4.46301 25.4891Z" fill="#060400"/>
<path d="M20.611 25.4372C20.611 24.3085 20.611 23.1799 20.611 22.0512C20.611 21.4143 20.7159 21.3028 21.3196 21.3013C22.6484 21.3013 23.9758 21.3013 25.3046 21.3013C25.6776 21.3013 25.9937 21.37 25.9802 21.8328C25.9668 22.2681 25.6552 22.3215 25.3076 22.3185C24.2155 22.3185 23.1233 22.3276 22.0327 22.3108C21.7181 22.3108 21.5833 22.3719 21.5968 22.7308C21.6252 23.3417 21.6252 23.9526 21.5968 24.5636C21.5788 24.9209 21.7166 24.9897 22.0327 24.9851C23.1233 24.9668 24.2155 24.9851 25.3061 24.9759C25.6791 24.9759 25.9937 25.0477 25.9802 25.5105C25.9668 25.9457 25.6552 25.9961 25.3061 25.9931C24.2155 25.9931 23.1233 26.0007 22.0327 25.9839C21.7166 25.9839 21.5833 26.0481 21.5968 26.4054C21.6252 27.0163 21.6252 27.6272 21.5968 28.2382C21.5788 28.5986 21.7181 28.6627 22.0327 28.6581C23.1233 28.6413 24.2155 28.6581 25.3076 28.6581C25.6552 28.6581 25.9668 28.707 25.9802 29.1423C25.9922 29.6005 25.6806 29.6768 25.3046 29.6753C23.9758 29.6753 22.6484 29.6753 21.3196 29.6753C20.7204 29.6753 20.6125 29.5608 20.611 28.9254C20.6095 27.7586 20.611 26.5979 20.611 25.4372Z" fill="#010000"/>
<path d="M13.5118 25.4647C13.5118 24.3355 13.5118 23.2069 13.5118 22.0787C13.5118 21.4312 13.6332 21.3029 14.2489 21.2998C14.9979 21.2998 15.735 21.2861 16.4781 21.2998C16.807 21.3024 17.1321 21.3714 17.4346 21.503C17.7371 21.6345 18.0111 21.8259 18.2405 22.0661C18.47 22.3063 18.6505 22.5905 18.7715 22.9023C18.8925 23.214 18.9516 23.5472 18.9455 23.8824C18.9455 24.5592 18.6829 25.2085 18.215 25.6886C17.7471 26.1688 17.112 26.4407 16.4481 26.4452C15.9747 26.4559 15.4983 26.4727 15.0264 26.4452C14.6459 26.4177 14.4991 26.5078 14.523 26.9324C14.562 27.6074 14.5335 28.287 14.5335 28.9636C14.5335 29.3347 14.4631 29.6662 14.0092 29.6601C13.5553 29.6539 13.5073 29.3149 13.5088 28.9453C13.5148 27.7861 13.5118 26.6193 13.5118 25.4647ZM15.6601 25.4127C15.8968 25.4127 16.1335 25.4127 16.3687 25.4127C17.2676 25.3913 17.9253 24.7591 17.9477 23.8992C17.9687 23.0638 17.3035 22.3628 16.4211 22.3231C15.9028 22.3002 15.3725 22.3338 14.8616 22.3109C14.562 22.2986 14.5245 22.4361 14.5305 22.685C14.5425 23.215 14.5305 23.7465 14.5305 24.2764C14.535 25.4127 14.535 25.4127 15.6601 25.4127Z" fill="#050400"/>
<path d="M4.46289 25.4891C4.46382 24.8627 4.64731 24.2508 4.99006 23.731C5.3328 23.2112 5.81934 22.807 6.38789 22.5696C6.95644 22.3323 7.58136 22.2725 8.18328 22.398C8.78521 22.5234 9.33698 22.8284 9.76855 23.2742C10.2001 23.7199 10.492 24.2864 10.6072 24.9016C10.7223 25.5169 10.6555 26.1531 10.4152 26.7296C10.175 27.306 9.77212 27.7967 9.25778 28.1392C8.74345 28.4818 8.14086 28.6608 7.52653 28.6536C6.71068 28.6415 5.93217 28.303 5.35901 27.711C4.78584 27.1189 4.46399 26.3209 4.46289 25.4891Z" fill="#FBC900"/>
<path d="M15.6598 25.4127C14.5347 25.4127 14.5347 25.4127 14.5347 24.2749C14.5347 23.7449 14.5422 23.2134 14.5347 22.6835C14.5347 22.4345 14.5721 22.2971 14.8657 22.3093C15.3841 22.3322 15.9144 22.2986 16.4253 22.3215C17.3077 22.3612 17.9728 23.0623 17.9519 23.8977C17.9294 24.7575 17.2717 25.3898 16.3729 25.4112C16.1332 25.4173 15.8965 25.4127 15.6598 25.4127Z" fill="#FAC800"/>
</svg>
