<svg width="28" height="20" viewBox="0 0 28 20" fill="none" xmlns="http://www.w3.org/2000/svg">
<g opacity="0.8">
<path d="M4.86943 14.8717L0 9.99916H3.62091C3.89975 5.53552 5.97852 2.33441 10.1462 0.665316C13.1612 -0.541915 16.5079 -0.0193 18.8694 1.53297L17.0718 3.32901C14.3341 2.05246 11.6323 2.19032 9.12745 4.0479C7.17095 5.50047 6.22931 7.52083 6.15065 9.97891H9.76923L4.86943 14.8717Z" fill="white"/>
<path d="M21.1211 9.99915H17.4861C19.1218 8.36354 20.7574 6.72794 22.3789 5.1048L27.26 9.99058H23.6539C23.3704 14.4386 21.3119 17.6577 17.1473 19.305C14.1199 20.5021 11.1595 20.1087 8.38129 18.4638L10.1937 16.6506C12.9976 17.9466 15.7298 17.7885 18.2471 15.8585C20.1413 14.4052 21.0471 12.4097 21.1211 9.99915Z" fill="white"/>
</g>
</svg>
